<?xml version="1.0" standalone="no"?><!DOCTYPE svg PUBLIC "-//W3C//DTD SVG 1.1//EN" "http://www.w3.org/Graphics/SVG/1.1/DTD/svg11.dtd"><svg t="1705333171272" class="icon" viewBox="0 0 1024 1024" version="1.1" xmlns="http://www.w3.org/2000/svg" p-id="18866" xmlns:xlink="http://www.w3.org/1999/xlink" width="200" height="200"><path d="M364.088889 11.377778c-62.577778 11.377778-73.955556 22.755556-73.955556 56.888889 0 28.444444 0 28.444444 62.577778 22.755556 85.333333-11.377778 301.511111-11.377778 341.333333 5.688889C739.555556 113.777778 756.622222 147.911111 762.311111 227.555556c11.377778 85.333333-17.066667 119.466667-96.711111 119.466667-28.444444 0-119.466667 5.688889-199.111111 5.688889C290.133333 358.4 284.444444 352.711111 278.755556 216.177778c0-51.2-5.688889-96.711111-11.377778-102.4-11.377778-22.755556-56.888889-17.066667-68.266667 11.377778-11.377778 28.444444-17.066667 142.222222 0 210.488889 17.066667 79.644444 39.822222 102.4 119.466667 108.088889 56.888889 5.688889 68.266667 11.377778 51.2 22.755556-34.133333 39.822222-153.6 91.022222-227.555556 91.022222-56.888889 0-85.333333 22.755556-73.955556 62.577778 11.377778 39.822222 91.022222 34.133333 233.244444-17.066667C352.711111 585.955556 455.111111 500.622222 483.555556 460.8 506.311111 426.666667 506.311111 426.666667 625.777778 426.666667c147.911111 0 199.111111-11.377778 221.866667-73.955556 22.755556-51.2 22.755556-85.333333 5.688889-164.977778-28.444444-130.844444-45.511111-147.911111-153.6-176.355556C648.533333 0 426.666667 0 364.088889 11.377778L364.088889 11.377778 364.088889 11.377778zM364.088889 11.377778" fill="#DA322E" p-id="18867"></path><path d="M358.4 193.422222C352.711111 204.8 352.711111 216.177778 352.711111 233.244444 358.4 250.311111 369.777778 250.311111 512 250.311111l153.6 0 5.688889-34.133333c5.688889-39.822222 11.377778-34.133333-159.288889-39.822222C415.288889 176.355556 369.777778 182.044444 358.4 193.422222L358.4 193.422222 358.4 193.422222 358.4 193.422222zM358.4 193.422222" fill="#DA322E" p-id="18868"></path><path d="M574.577778 455.111111C551.822222 466.488889 546.133333 477.866667 551.822222 500.622222c5.688889 28.444444-11.377778 39.822222-130.844444 119.466667-85.333333 56.888889-164.977778 96.711111-210.488889 113.777778-136.533333 39.822222-164.977778 56.888889-130.844444 96.711111 51.2 62.577778 278.755556-56.888889 529.066667-267.377778 51.2-45.511111 102.4-45.511111 125.155556 5.688889 11.377778 28.444444 22.755556 34.133333 56.888889 34.133333 91.022222 0 113.777778 102.4 51.2 193.422222-62.577778 91.022222-176.355556 136.533333-250.311111 96.711111-34.133333-17.066667-39.822222-17.066667-45.511111 0-11.377778 22.755556 17.066667 85.333333 45.511111 113.777778 45.511111 39.822222 182.044444 0 284.444444-91.022222 62.577778-56.888889 85.333333-96.711111 91.022222-170.666667 11.377778-136.533333-96.711111-267.377778-238.933333-284.444444C688.355556 455.111111 648.533333 455.111111 631.466667 449.422222 614.4 449.422222 591.644444 449.422222 574.577778 455.111111L574.577778 455.111111 574.577778 455.111111 574.577778 455.111111zM574.577778 455.111111" fill="#DA322E" p-id="18869"></path><path d="M625.777778 676.977778c-164.977778 130.844444-307.2 210.488889-443.733333 250.311111C102.4 944.355556 96.711111 1024 176.355556 1024c45.511111 0 187.733333-56.888889 261.688889-113.777778 39.822222-28.444444 79.644444-45.511111 91.022222-45.511111s22.755556-5.688889 22.755556-17.066667c0-11.377778 34.133333-45.511111 68.266667-79.644444 113.777778-96.711111 119.466667-102.4 102.4-125.155556C699.733333 620.088889 694.044444 625.777778 625.777778 676.977778L625.777778 676.977778 625.777778 676.977778zM625.777778 676.977778" fill="#DA322E" p-id="18870"></path></svg>