<?xml version="1.0" encoding="UTF-8"?>
<svg xmlns="http://www.w3.org/2000/svg" xmlns:xlink="http://www.w3.org/1999/xlink" width="24" height="24" viewBox="0 0 24 24" version="1.1">
    <title>Public/ic_public_detail</title>
    <defs>
        <path d="M12,1 C18.0751322,1 23,5.92486775 23,12 C23,18.0751322 18.0751322,23 12,23 C5.92486775,23 1,18.0751322 1,12 C1,5.92486775 5.92486775,1 12,1 Z M12,2.5 C6.75329488,2.5 2.5,6.75329488 2.5,12 C2.5,17.2467051 6.75329488,21.5 12,21.5 C17.2467051,21.5 21.5,17.2467051 21.5,12 C21.5,6.75329488 17.2467051,2.5 12,2.5 Z M12,9.75 C12.4142136,9.75 12.75,10.0857864 12.75,10.5 L12.75,17.25 C12.75,17.6642136 12.4142136,18 12,18 C11.5857864,18 11.25,17.6642136 11.25,17.25 L11.25,10.5 C11.25,10.0857864 11.5857864,9.75 12,9.75 Z M12,6 C12.6903559,6 13.25,6.55964406 13.25,7.25 C13.25,7.94035594 12.6903559,8.5 12,8.5 C11.3096441,8.5 10.75,7.94035594 10.75,7.25 C10.75,6.55964406 11.3096441,6 12,6 Z" id="_path-1"/>
    </defs>
    <g id="_Public/ic_public_detail" stroke="none" stroke-width="1" fill="none" fill-rule="evenodd">
        <mask id="_mask-2" fill="white">
            <use xlink:href="#_path-1"/>
        </mask>
        <use id="_形状结合" fill="#000000" fill-rule="nonzero" xlink:href="#_path-1"/>
    </g>
</svg>