<?xml version="1.0" standalone="no"?><!DOCTYPE svg PUBLIC "-//W3C//DTD SVG 1.1//EN" "http://www.w3.org/Graphics/SVG/1.1/DTD/svg11.dtd"><svg t="1698747934673" class="icon" viewBox="0 0 1024 1024" version="1.1" xmlns="http://www.w3.org/2000/svg" p-id="1897" xmlns:xlink="http://www.w3.org/1999/xlink" width="200" height="200" fill="currentColor"><path d="M799.8999998 743.00000029l150.19999981 150.22499942a40.02500039 40.02500039 0 0 1 0 56.95000049 40.5500001 40.5500001 0 0 1-28.47499981 11.8249998 40.5500001 40.5500001 0 0 1-28.4749998-11.8249998L743.00000029 800a416.35000019 416.35000019 0 0 1-559.00000019-27.10000019A416.45000039 416.45000039 0 0 1 478.40000029 62C708.35000029 62 894.74999961 248.42499981 894.74999961 478.4249999c0 98.62499971-34.80000029 191.54999971-94.87499941 264.6zM478.40000029 142.62499971c-185.3499999 0.29999971-335.49999961 150.4749999-335.80000019 335.82500068 0 185.4500001 150.3500001 335.82499981 335.80000019 335.82499981s335.77499971-150.37499971 335.77499971-335.82499981c0-185.47499971-150.32499961-335.82499981-335.77499971-335.82500068z" p-id="1898"></path></svg>