<?xml version="1.0" encoding="UTF-8"?>
<svg xmlns="http://www.w3.org/2000/svg" xmlns:xlink="http://www.w3.org/1999/xlink" width="24" height="24" viewBox="0 0 24 24" version="1.1">
    <title>Public/ic_public_file_filled</title>
    <defs>
        <path d="M14.763,0.999772016 L21,7.23477202 L21,19 C21,21.209139 19.209139,23 17,23 L7,23 C4.790861,23 3,21.209139 3,19 L3,5 C3,2.790861 4.790861,1 7,1 L14.763,0.999772016 Z M16.5,14.75 L7.5,14.75 C7.08578644,14.75 6.75,15.0857864 6.75,15.5 C6.75,15.9142136 7.08578644,16.25 7.5,16.25 L7.5,16.25 L16.5,16.25 C16.9142136,16.25 17.25,15.9142136 17.25,15.5 C17.25,15.0857864 16.9142136,14.75 16.5,14.75 L16.5,14.75 Z M11.5,10.5 L7.5,10.5 C7.08578644,10.5 6.75,10.8357864 6.75,11.25 C6.75,11.6642136 7.08578644,12 7.5,12 L7.5,12 L11.5,12 C11.9142136,12 12.25,11.6642136 12.25,11.25 C12.25,10.8357864 11.9142136,10.5 11.5,10.5 L11.5,10.5 Z M13.75,2.5 L13.75,5.5 C13.75,6.88071187 14.8692881,8 16.25,8 L16.25,8 L19.25,8 L13.75,2.5 Z" id="_path-1"/>
    </defs>
    <g id="_Public/ic_public_file_filled" stroke="none" stroke-width="1" fill="none" fill-rule="evenodd">
        <mask id="_mask-2" fill="white">
            <use xlink:href="#_path-1"/>
        </mask>
        <use id="_形状结合" fill="#000000" xlink:href="#_path-1"/>
    </g>
</svg>