<?xml version="1.0" encoding="UTF-8"?>
<svg xmlns="http://www.w3.org/2000/svg" xmlns:xlink="http://www.w3.org/1999/xlink" width="24" height="24" viewBox="0 0 24 24" version="1.1">
    <title>Public/ic_public_calendar_filled</title>
    <defs>
        <path d="M22,9 L22,18 C22,20.209139 20.209139,22 18,22 L6,22 C3.790861,22 2,20.209139 2,18 L2,9 L22,9 Z M14.25,2 L14.25,4 C14.25,5.1045695 15.1454305,6 16.25,6 C17.3545695,6 18.25,5.1045695 18.25,4 L18.2509202,2.00774235 C20.3431683,2.13724416 22,3.87513518 22,6 L22,7.5 L2,7.5 L2,6 C2,3.87479537 3.65736171,2.13668831 5.7500836,2.00768034 L5.75,4 C5.75,5.1045695 6.6454305,6 7.75,6 C8.8545695,6 9.75,5.1045695 9.75,4 L9.75,2 L14.25,2 L14.25,2 Z M16.25,1 C16.8022847,1 17.25,1.44771525 17.25,2 L17.25,4 C17.25,4.51283584 16.8639598,4.93550716 16.3666211,4.99327227 L16.25,5 L16.25,5 C15.6977153,5 15.25,4.55228475 15.25,4 L15.25,2 C15.25,1.44771525 15.6977153,1 16.25,1 Z M7.75,1 C8.30228475,1 8.75,1.44771525 8.75,2 L8.75,4 C8.75,4.51283584 8.36395981,4.93550716 7.86662113,4.99327227 L7.75,5 L7.75,5 C7.19771525,5 6.75,4.55228475 6.75,4 L6.75,2 C6.75,1.44771525 7.19771525,1 7.75,1 Z" id="_path-1"/>
    </defs>
    <g id="_Public/ic_public_calendar_filled" stroke="none" stroke-width="1" fill="none" fill-rule="evenodd">
        <mask id="_mask-2" fill="white">
            <use xlink:href="#_path-1"/>
        </mask>
        <use id="_形状结合" fill="#000000" fill-rule="nonzero" xlink:href="#_path-1"/>
    </g>
</svg>