<?xml version="1.0" encoding="UTF-8"?>
<svg xmlns="http://www.w3.org/2000/svg" xmlns:xlink="http://www.w3.org/1999/xlink" width="24" height="24" version="1.1" viewBox="0 0 24 24">
  <defs>
    <path id="_uxs-a" d="M18.9536914,3.28426541 C19.6055433,3.63287959 20.1171204,4.14445674 20.4657346,4.79630859 C20.8143488,5.44816044 21,6.09473292 21,7.8777704 L21,17.6222296 C21,19.4052671 20.8143488,20.0518396 20.4657346,20.7036914 C20.1171204,21.3555433 19.6055433,21.8671204 18.9536914,22.2157346 C18.3018396,22.5643488 17.6552671,22.75 15.8722296,22.75 L8.1277704,22.75 C6.34473292,22.75 5.69816044,22.5643488 5.04630859,22.2157346 C4.39445674,21.8671204 3.88287959,21.3555433 3.53426541,20.7036914 C3.18565122,20.0518396 3,19.4052671 3,17.6222296 L3,7.8777704 C3,6.09473292 3.18565122,5.44816044 3.53426541,4.79630859 C3.88287959,4.14445674 4.39445674,3.63287959 5.04630859,3.28426541 C5.50048953,3.04136679 5.95210749,2.87758136 6.78735947,2.80058346 C6.76191099,2.98454285 6.75,3.18544883 6.75,3.41027668 L6.75,3.83972332 C6.75,4.46574574 6.84234799,4.90629771 7.06853633,5.32923314 C7.29246645,5.74794605 7.62705395,6.08253355 8.04576686,6.30646367 C8.46870229,6.53265201 8.90925426,6.625 9.53527668,6.625 L14.4647233,6.625 C15.0907457,6.625 15.5312977,6.53265201 15.9542331,6.30646367 C16.3729461,6.08253355 16.7075336,5.74794605 16.9314637,5.32923314 C17.157652,4.90629771 17.25,4.46574574 17.25,3.83972332 L17.25,3.41027668 C17.25,3.18544883 17.238089,2.98454285 17.212345,2.79978354 C18.0478925,2.87758136 18.4995105,3.04136679 18.9536914,3.28426541 Z M17.3440386,10.2196699 C17.0511454,9.9267767 16.5762716,9.9267767 16.2833784,10.2196699 L16.2833784,10.2196699 L11.4371843,15.065864 L11.4051231,15.0961246 C11.1106037,15.3583836 10.6589569,15.3482967 10.3765242,15.065864 L10.3765242,15.065864 L8.28033009,12.9696699 L8.2482689,12.9394093 C7.95374943,12.6771503 7.50210266,12.6872372 7.21966991,12.9696699 C6.9267767,13.2625631 6.9267767,13.7374369 7.21966991,14.0303301 L7.21966991,14.0303301 L9.66941738,16.4800776 L9.71267619,16.5219013 C10.3988189,17.1631984 11.4751115,17.1492572 12.1442911,16.4800776 L12.1442911,16.4800776 L17.3440386,11.2803301 L17.3742992,11.2482689 C17.6365582,10.9537494 17.6264713,10.5021027 17.3440386,10.2196699 Z M14.4647233,1.625 C14.9681977,1.625 15.2381898,1.69461921 15.4826343,1.82534953 C15.7270787,1.95607985 15.9189202,2.14792128 16.0496505,2.39236572 C16.1803808,2.63681017 16.25,2.90680229 16.25,3.41027668 L16.25,3.83972332 C16.25,4.34319771 16.1803808,4.61318983 16.0496505,4.85763428 C15.9189202,5.10207872 15.7270787,5.29392015 15.4826343,5.42465047 C15.2381898,5.55538079 14.9681977,5.625 14.4647233,5.625 L9.53527668,5.625 C9.03180229,5.625 8.76181017,5.55538079 8.51736572,5.42465047 C8.27292128,5.29392015 8.08107985,5.10207872 7.95034953,4.85763428 C7.81961921,4.61318983 7.75,4.34319771 7.75,3.83972332 L7.75,3.41027668 C7.75,2.90680229 7.81961921,2.63681017 7.95034953,2.39236572 C8.08107985,2.14792128 8.27292128,1.95607985 8.51736572,1.82534953 C8.76181017,1.69461921 9.03180229,1.625 9.53527668,1.625 L14.4647233,1.625 Z"/>
  </defs>
  <g fill="none" fill-rule="evenodd" stroke="none" stroke-width="1">
    <mask id="_uxs-b" fill="#fff">
      <use xlink:href="#_uxs-a"/>
    </mask>
    <g fill="#000" fill-opacity=".9" mask="url(#_uxs-b)">
      <rect width="24" height="24" x="0" y="0"/>
    </g>
  </g>
</svg>