<?xml version="1.0" standalone="no"?><!DOCTYPE svg PUBLIC "-//W3C//DTD SVG 1.1//EN" "http://www.w3.org/Graphics/SVG/1.1/DTD/svg11.dtd"><svg t="1705297598948" class="icon" viewBox="0 0 1024 1024" version="1.1" xmlns="http://www.w3.org/2000/svg" p-id="9194" xmlns:xlink="http://www.w3.org/1999/xlink" width="200" height="200"><path d="M173.834579 894.533113c-2.093135 0.056419-3.430259-1.252496-4.809697-2.572694-31.092364-29.701642-59.775647-61.462567-83.519472-97.463361-32.426667-49.160463-56.08022-102.216639-70.337234-159.365995-5.986028-24.011813-9.689917-48.418556-12.398016-73.062259-2.702457-24.576-3.351273-49.168926-2.282138-73.711074 1.066314-24.437774 4.053686-48.796562 8.665917-72.909928 9.940981-51.95319 27.605686-101.141862 52.726127-147.625257 16.175251-29.930138 35.264529-57.891262 57.129609-84.063911 14.039802-16.80432 29.174127-32.49719 45.078567-47.388915 27.752375-25.989289 58.212848-48.469333 91.147284-67.617851a510.843416 510.843416 0 0 1 102.005069-45.208331c28.76227-9.165223 58.207207-15.083548 88.145807-19.30649C476.67341-0.174898 508.042226-0.614964 539.368727 0.558545c34.559295 1.297631 68.712375 6.891548 102.202535 15.825455 37.038898 9.873278 72.687074 23.413774 106.659614 41.26184 30.35892 15.949576 59.053488 34.48595 85.536441 56.260761a540.09935 540.09935 0 0 1 63.922424 62.01265c31.38292 35.921807 57.259372 75.268231 77.37265 118.389069 19.478567 41.763967 32.928793 85.381289 41.022061 130.880176 6.950788 39.058689 8.321763 78.348694 6.358391 117.590744-2.829399 56.65005-15.853664 111.34519-37.563592 163.899239-16.65481 40.311185-38.229333 77.809895-64.368133 112.611791-11.785873 15.698512-24.767824 30.483041-38.297035 44.81622-9.179328 9.72659-18.319163 19.337521-28.841257 27.588761-5.78292-4.338601-11.478391-8.801322-17.368506-12.987593-24.104904-17.142832-51.132298-28.367339-78.836717-37.95006-18.110413-6.262479-35.876672-13.625124-54.534347-18.276849-2.22854-2.22854-5.142567-3.142523-7.997355-4.200374-16.32476-6.045267-31.986601-13.368419-46.102568-23.724077-17.19643-12.623691-27.61697-28.923063-27.693135-50.819174-0.073344-22.087934 0.028209-44.175868-0.070523-66.269444-0.014105-3.046612 0.682667-5.190523 3.300496-7.128506 11.709708-8.654634 22.059725-18.888992 31.380099-29.969631 16.166788-19.207758 31.523967-39.038942 36.198259-64.768706 0.547262-3.026865 2.025433-4.891504 5.647515-6.050909 6.696904-2.143912 12.251328-6.262479 16.482733-12.437509 9.159581-13.37124 12.660364-28.333488 14.812738-44.057389 2.177763-15.938292 0.225675-30.350457-11.658931-42.130688-2.877355-2.854788-3.334347-5.66162-2.34984-9.500915 8.606678-33.594534 11.060893-67.617851 7.946578-102.210997-2.516275-27.94984-7.983251-54.946204-20.186622-80.422083-18.037069-37.665146-46.249256-62.280639-88.064-69.96487-4.51914-0.829355-8.688485-2.01697-11.543273-6.798458-2.437289-4.081895-6.488154-7.272375-10.536198-10.21179-21.015978-15.258446-45.400154-19.60551-70.334414-20.643615-28.124738-1.17351-56.023802 1.932342-83.21763 9.692739-33.428099 9.537587-62.991515 25.255846-87.209257 51.087162-31.927361 34.051526-45.465036 75.465697-49.03352 120.391934-2.933774 36.976837 0.823713 73.857763 10.132804 109.940364 0.970402 3.760309 0.479559 6.301972-2.330094 8.719515-6.149642 5.292077-9.334479 12.364165-10.905741 20.039934-4.110105 20.051218 0.544441 38.999449 8.237135 57.369388 2.998656 7.159537 6.648948 14.680154 14.020055 17.856529 10.082028 4.344242 15.955218 10.849322 16.406568 21.929961 0.008463 0.214391 0.208749 0.42314 0.299019 0.634711 13.577168 33.39989 35.459174 60.359581 63.925245 82.13157 3.150986 2.411901 4.448617 4.832264 4.310392 8.759009-0.837818 23.898975 0.623427 47.806413-1.105808 71.756165-0.851923 11.833829-4.942281 21.320639-12.130027 29.828584-10.293598 12.175163-23.055515 21.255758-37.563592 27.870854-10.832397 4.936639-21.659152 9.890204-32.485907 14.840948-21.636584 7.579857-43.487559 14.60681-64.850512 22.891901-24.477267 9.495273-48.238017 20.621047-69.507879 36.421112-5.012804 3.726457-9.063669 8.753366-15.021487 11.199119" fill="#ECECEC" p-id="9195"></path><path d="M702.633256 822.480749c18.657675 4.654545 36.423934 12.011548 54.537168 18.27967 27.704419 9.579901 54.728992 20.804408 78.836716 37.947239 5.890116 4.18627 11.582766 8.648992 17.365686 12.987593-12.209014 12.71114-26.299592 23.22195-40.460694 33.512727-44.909311 32.624132-93.798964 57.575317-146.804363 74.24141-29.236187 9.196253-59.126832 15.151251-89.505499 19.495494-29.862435 4.270898-59.747438 4.27654-89.663471 3.726457-22.121785-0.409036-44.125091-3.46411-65.92811-7.390854-29.261576-5.26951-57.834843-13.1907-85.722623-23.458909-32.435129-11.943846-63.33849-27.109201-92.760859-45.276033C220.157179 932.728595 199.177873 917.001873 178.982788 900.211658c-1.946446-1.619218-3.444364-3.774413-5.148209-5.681366 5.960639-2.442931 10.011504-7.46984 15.021487-11.196298 21.272683-15.802887 45.030612-26.92584 69.5107-36.418292 21.360132-8.287912 43.213928-15.314865 64.850512-22.897542 1.198898 1.430215 2.268033 2.998656 3.622083 4.265256 19.456 18.175295 41.165928 33.270127 64.836408 45.278854 29.608551 15.024309 60.709377 25.306623 94.143118 28.246039 26.305234 2.313168 52.390435 1.921058 78.145587-3.723637 38.232154-8.383824 73.24562-24.282623 104.896529-47.371989 11.86768-8.660275 23.890512-17.176683 33.772253-28.231934" fill="#C7C7C7" p-id="9196"></path><path d="M702.633256 822.480749c-9.881741 11.058072-21.904573 19.571658-33.772253 28.231934-31.650909 23.089366-66.664375 38.988165-104.896529 47.369168-25.755152 5.647515-51.840353 6.039625-78.145587 3.726458-33.433741-2.939416-64.534567-13.22173-94.143118-28.246039-23.670479-12.008727-45.380408-27.103559-64.836408-45.276033-1.35405-1.269421-2.423185-2.837862-3.622083-4.268077 10.826755-4.947923 21.650689-9.901488 32.483086-14.838127 14.508077-6.615096 27.272815-15.695691 37.560771-27.870854 7.190567-8.507945 11.280926-17.994755 12.132848-29.828584 1.729234-23.949752 0.267989-47.85719 1.105808-71.756165 0.138226-3.926744-1.156584-6.347107-4.307571-8.759009-28.468893-21.771989-50.350898-48.734501-63.928066-82.13157-0.09027-0.214391-0.290556-0.42032-0.296198-0.634711-0.454171-11.080639-6.32454-17.58854-16.409389-21.932782-7.368287-3.173554-11.018579-10.69135-14.017234-17.853708-7.692694-18.369939-12.350061-37.318171-8.239956-57.369388 1.574083-7.672948 4.756099-14.747857 10.905741-20.039934 2.806832-2.417543 3.303317-4.959207 2.332915-8.716694-9.311912-36.085421-13.066579-72.966347-10.132804-109.943185 3.565664-44.926237 17.10616-86.340408 49.03352-120.391934 24.217741-25.831317 53.781157-41.549576 87.206436-51.087162 27.193829-7.757576 55.092893-10.866248 83.21763-9.692739 24.934259 1.038105 49.321256 5.387989 70.334414 20.643615 4.050865 2.939416 8.10173 6.129895 10.536198 10.21179 2.851967 4.781488 7.024132 5.969102 11.543273 6.798458 41.814744 7.684231 70.026931 32.299725 88.064 69.96487 12.203372 25.475879 17.670347 52.472242 20.186622 80.424904 3.117135 34.590325 0.660099 68.613642-7.946578 102.208176-0.981686 3.839295-0.530336 6.646127 2.34984 9.500915 11.884606 11.780231 13.839515 26.189576 11.658931 42.130688-2.152375 15.723901-5.650336 30.683328-14.809917 44.057389-4.234226 6.177851-9.78865 10.296419-16.482733 12.44033-3.622083 1.156584-5.100253 3.021223-5.650336 6.045268-4.671471 25.735405-20.02865 45.563769-36.195438 64.771526-9.323196 11.080639-19.673212 21.314997-31.380099 29.969631-2.617829 1.937983-3.317421 4.079074-3.303317 7.128506 0.098733 22.090755-0.002821 44.178689 0.073344 66.269444 0.073344 21.89611 10.493884 38.195482 27.690314 50.816353 14.118788 10.358479 29.777807 17.681631 46.105389 23.726898 2.854788 1.057851 5.763174 1.974656 7.994534 4.203195" fill="#D7D7D7" p-id="9197"></path></svg>