<?xml version="1.0" standalone="no"?><!DOCTYPE svg PUBLIC "-//W3C//DTD SVG 1.1//EN" "http://www.w3.org/Graphics/SVG/1.1/DTD/svg11.dtd"><svg t="1705298532432" class="icon" viewBox="0 0 1024 1024" version="1.1" xmlns="http://www.w3.org/2000/svg" p-id="4402" xmlns:xlink="http://www.w3.org/1999/xlink" width="200" height="200"><path d="M925.013333 884.053333h-822.613333c-17.066667 0-30.72 13.653333-30.72 30.72s13.653333 30.72 30.72 30.72h826.026667c17.066667 0 30.72-13.653333 30.72-30.72-3.413333-13.653333-17.066667-30.72-34.133334-30.72zM98.986667 791.893333h146.773333c6.826667 0 17.066667-3.413333 20.48-10.24l505.173333-505.173333c13.653333-13.653333 13.653333-30.72 0-44.373333L628.053333 85.333333c-13.653333-13.653333-30.72-13.653333-44.373333 0l-102.4 102.4-402.773333 402.773334c-6.826667 6.826667-10.24 13.653333-10.24 20.48v146.773333c0 6.826667 3.413333 17.066667 10.24 23.893333 3.413333 6.826667 13.653333 10.24 20.48 10.24z m505.173333-641.706666l102.4 102.4-58.026667 58.026666-102.4-102.4 58.026667-58.026666z m-471.04 474.453333l372.053333-372.053333 102.4 102.4-372.053333 372.053333h-102.4v-102.4z" p-id="4403"></path></svg>